# xmcd
#
# Track frame offsets:
#	150
#	12858
#	24016
#	34064
#	46018
#	56954
#	68222
#	80693
#	93369
#	105884
#	117438
#	128420
#	138018
#	147265
#	158183
#	167907
#	177525
#	189637
#	201211
#	213465
#	226047
#	238965
#	250127
#	263165
#	274070
#	287912
#	300696
#	312352
#	323558
#	337234
#
# Disc length: 4662 seconds
#
# Revision: 0
# Processed by: cddbd v1.5.2PL0 Copyright (c) Steve Scherf et al.
# Submitted via: audiograbber 1.83.01
#
DISCID=ac12341e
DTITLE=Various Artist - Soul City Detroit
DYEAR=2013
DGENRE=Soul
TTITLE0=Marvelettes - 1962 - Playboy
TTITLE1=Marvelettes - 1961 - All The Love I've Got
TTITLE2=Marvelettes - 1962 - Beechwood 4-5789
TTITLE3=Marvelettes - 1962 - Someday, Someway
TTITLE4=Mary Wells - 1961 - I'm So Sorry
TTITLE5=Mary Wells - 1962 - The One Who Really Loves You
TTITLE6=Mary Wells - 1961 - I'm Gonna Stay
TTITLE7=Mary Wells - 1962 - Two Lovers
TTITLE8=Mary Wells - 1962 - Operator
TTITLE9=Corvells - 1962 - He's So Fine
TTITLE10=Primettes - 1961 - Tears Of Sorrow
TTITLE11=Primettes - 1961 - Pretty Baby
TTITLE12=Nathaniel Mayer and  The Fabulous Twilights - 1962 - Village Of Love
TTITLE13=Nathaniel Mayer and  The Fabulous Twilights - 1962 - I Want A Woman
TTITLE14=Lamont Dozier - 1962 - Dearest One
TTITLE15=Lamont Dozier - 1962 - Fortune Teller Tell Me
TTITLE16=Saundra Mallett and The Vandellas - 1962 - Camel Walk
TTITLE17=Saundra Mallett and The Vandellas - 1962 - It's Gonna Be Hard Times
TTITLE18=Hattie Littles - 1962 - Here You Come
TTITLE19=Hattie Littles - 1962 - Your Love Is Wonderful
TTITLE20=Martha and The Vandellas - 1962 - I'll Have To Let Him Go
TTITLE21=Martha and The Vandellas - 1962 - My Baby Won't Come Back
TTITLE22=Vells - 1962 - You'll Never Cherish A Love So True
TTITLE23=Vells - 1962 - There He Is (At My Door)
TTITLE24=Pirates - 1962 - Mind Over Matter
TTITLE25=Pirates - 1962 - I'll Love You 'Till I Die
TTITLE26=Supremes - 1962 - Let Me Go The Right Way
TTITLE27=Supremes - 1962 - Time Changes Things
TTITLE28=Miracles - 1962 - You've Really Got A Hold On Me
TTITLE29=Miracles - 1962 - Happy Landing
EXTD=
EXTT0=
EXTT1=
EXTT2=
EXTT3=
EXTT4=
EXTT5=
EXTT6=
EXTT7=
EXTT8=
EXTT9=
EXTT10=
EXTT11=
EXTT12=
EXTT13=
EXTT14=
EXTT15=
EXTT16=
EXTT17=
EXTT18=
EXTT19=
EXTT20=
EXTT21=
EXTT22=
EXTT23=
EXTT24=
EXTT25=
EXTT26=
EXTT27=
EXTT28=
EXTT29=
PLAYORDER=
